<svg width="36" height="30" viewBox="0 0 36 30" fill="none" xmlns="http://www.w3.org/2000/svg">
<path d="M17.9873 30C17.757 30.0013 17.5287 29.9568 17.3156 29.869C17.1024 29.7812 16.9085 29.6517 16.745 29.4882L3.14929 15.7584C1.4439 14.0204 0.487305 11.674 0.487305 9.22882C0.487305 6.78364 1.4439 4.43721 3.14929 2.69924C4.86802 0.970683 7.1962 0 9.62342 0C12.0506 0 14.3788 0.970683 16.0976 2.69924L17.9873 4.60517L19.8771 2.69924C21.5958 0.970683 23.924 0 26.3512 0C28.7784 0 31.1066 0.970683 32.8253 2.69924C34.5307 4.43721 35.4873 6.78364 35.4873 9.22882C35.4873 11.674 34.5307 14.0204 32.8253 15.7584L19.2296 29.4882C19.0661 29.6517 18.8722 29.7812 18.659 29.869C18.4459 29.9568 18.2176 30.0013 17.9873 30Z" fill="white"/>
</svg>
