<svg width="27" height="27" viewBox="0 0 27 27" fill="none" xmlns="http://www.w3.org/2000/svg">
<path d="M13.5 0.875C11.003 0.875 8.5621 1.61544 6.48593 3.0027C4.40976 4.38995 2.79158 6.3617 1.83603 8.66862C0.88047 10.9755 0.630453 13.514 1.11759 15.963C1.60473 18.412 2.80714 20.6616 4.57278 22.4272C6.33842 24.1929 8.58798 25.3953 11.037 25.8824C13.486 26.3695 16.0245 26.1195 18.3314 25.164C20.6383 24.2084 22.6101 22.5902 23.9973 20.5141C25.3846 18.4379 26.125 15.997 26.125 13.5C26.125 11.8421 25.7984 10.2004 25.164 8.66862C24.5295 7.13688 23.5996 5.74511 22.4272 4.57278C21.2549 3.40044 19.8631 2.47049 18.3314 1.83602C16.7996 1.20156 15.1579 0.875 13.5 0.875ZM13.5 23.375C11.5469 23.375 9.63768 22.7958 8.01375 21.7108C6.38981 20.6257 5.12411 19.0834 4.3767 17.279C3.62928 15.4746 3.43372 13.489 3.81475 11.5735C4.19578 9.65792 5.13628 7.89836 6.51732 6.51732C7.89837 5.13628 9.65792 4.19577 11.5735 3.81474C13.489 3.43372 15.4746 3.62927 17.279 4.37669C19.0834 5.1241 20.6257 6.38981 21.7108 8.01374C22.7958 9.63768 23.375 11.5469 23.375 13.5C23.375 16.119 22.3346 18.6308 20.4827 20.4827C18.6308 22.3346 16.119 23.375 13.5 23.375ZM13.5 9.875C14.2594 9.875 14.875 9.25939 14.875 8.5C14.875 7.74061 14.2594 7.125 13.5 7.125C12.7406 7.125 12.125 7.74061 12.125 8.5C12.125 9.25939 12.7406 9.875 13.5 9.875ZM13.5 10.875C13.1353 10.875 12.7856 11.0199 12.5277 11.2777C12.2699 11.5356 12.125 11.8853 12.125 12.25V18.5C12.125 18.8647 12.2699 19.2144 12.5277 19.4723C12.7856 19.7301 13.1353 19.875 13.5 19.875C13.8647 19.875 14.2144 19.7301 14.4723 19.4723C14.7301 19.2144 14.875 18.8647 14.875 18.5V12.25C14.875 11.8853 14.7301 11.5356 14.4723 11.2777C14.2144 11.0199 13.8647 10.875 13.5 10.875Z" fill="#414780" stroke="#414780" stroke-width="0.25"/>
</svg>
