<svg width="31" height="22" viewBox="0 0 31 22" fill="none" xmlns="http://www.w3.org/2000/svg">
<path d="M28.5608 8.8003H7.48363L12.5386 3.76728C12.9525 3.35342 13.185 2.7921 13.185 2.20682C13.185 1.62153 12.9525 1.06022 12.5386 0.646361C12.1248 0.232503 11.5635 0 10.9782 0C10.3929 0 9.83158 0.232503 9.41772 0.646361L0.62641 9.43767C0.426319 9.64669 0.269471 9.89316 0.164867 10.1629C-0.0549556 10.698 -0.0549556 11.2982 0.164867 11.8333C0.269471 12.1031 0.426319 12.3496 0.62641 12.5586L9.41772 21.3499C9.62203 21.5559 9.86511 21.7194 10.1329 21.831C10.4008 21.9426 10.688 22 10.9782 22C11.2683 22 11.5556 21.9426 11.8234 21.831C12.0912 21.7194 12.3343 21.5559 12.5386 21.3499C12.7446 21.1456 12.9081 20.9025 13.0197 20.6347C13.1313 20.3668 13.1887 20.0796 13.1887 19.7894C13.1887 19.4993 13.1313 19.212 13.0197 18.9442C12.9081 18.6764 12.7446 18.4333 12.5386 18.229L7.48363 13.196H28.5608C29.1437 13.196 29.7027 12.9644 30.1149 12.5522C30.5271 12.1401 30.7586 11.581 30.7586 10.9981C30.7586 10.4152 30.5271 9.8562 30.1149 9.44403C29.7027 9.03185 29.1437 8.8003 28.5608 8.8003Z" fill="#202768"/>
</svg>
