<svg width="37" height="38" viewBox="0 0 37 38" fill="none" xmlns="http://www.w3.org/2000/svg">
<path d="M17.5644 1.35871C17.8973 0.514569 19.092 0.514571 19.4249 1.35872L23.9921 12.9391C24.0938 13.1968 24.2978 13.4008 24.5555 13.5025L36.1359 18.0697C36.9801 18.4027 36.9801 19.5973 36.1359 19.9303L24.5555 24.4975C24.2978 24.5992 24.0938 24.8032 23.9921 25.0609L19.4249 36.6413C19.092 37.4854 17.8973 37.4854 17.5644 36.6413L12.9971 25.0609C12.8955 24.8032 12.6915 24.5992 12.4337 24.4975L0.853344 19.9303C0.00919807 19.5973 0.00919962 18.4027 0.853345 18.0697L12.4337 13.5025C12.6915 13.4008 12.8955 13.1968 12.9971 12.9391L17.5644 1.35871Z" fill="white"/>
</svg>
