<svg width="36" height="32" viewBox="0 0 36 32" fill="none" xmlns="http://www.w3.org/2000/svg">
<path fill-rule="evenodd" clip-rule="evenodd" d="M35.4656 14.5125L21.4655 0.512383C21.2208 0.267713 20.909 0.1011 20.5695 0.0336065C20.2301 -0.0338875 19.8783 0.000768185 19.5586 0.133192C19.2388 0.265616 18.9656 0.489863 18.7733 0.777583C18.581 1.0653 18.4783 1.40358 18.4782 1.74965V7.95346C13.6977 8.39585 9.25426 10.6062 6.01754 14.1521C2.78082 17.6979 0.983753 22.324 0.978027 27.1249V29.7499C0.978304 30.1132 1.09162 30.4674 1.30226 30.7634C1.5129 31.0593 1.81042 31.2824 2.15356 31.4017C2.4967 31.5209 2.86844 31.5304 3.21723 31.4289C3.56602 31.3273 3.87456 31.1198 4.10006 30.835C5.81455 28.7961 7.91817 27.1194 10.288 25.9028C12.6579 24.6861 15.2464 23.954 17.9025 23.7491C17.99 23.7386 18.2087 23.7211 18.4782 23.7036V29.7499C18.4783 30.096 18.581 30.4343 18.7733 30.722C18.9656 31.0097 19.2388 31.234 19.5586 31.3664C19.8783 31.4988 20.2301 31.5335 20.5695 31.466C20.909 31.3985 21.2208 31.2319 21.4655 30.9872L35.4656 16.9871C35.7937 16.6589 35.978 16.2138 35.978 15.7498C35.978 15.2858 35.7937 14.8407 35.4656 14.5125ZM21.9783 21.8749V25.5254L31.7539 15.7498L21.9783 5.97419V9.62473C21.9783 10.0889 21.7939 10.534 21.4657 10.8622C21.1375 11.1904 20.6924 11.3747 20.2282 11.3747C16.3454 11.3797 12.6009 12.8167 9.71159 15.4106C6.82228 18.0044 4.99125 21.5729 4.56907 25.4327C8.28859 22.5001 12.7782 20.7082 17.4947 20.2736C17.9602 20.2123 19.782 20.1248 20.2282 20.1248C20.6924 20.1248 21.1375 20.3092 21.4657 20.6374C21.7939 20.9656 21.9783 21.4107 21.9783 21.8749Z" fill="white"/>
</svg>
