<svg width="35" height="35" viewBox="0 0 35 35" fill="none" xmlns="http://www.w3.org/2000/svg">
<path d="M22.7466 15.75H19.2466V8.75C19.2466 8.28587 19.0622 7.84075 18.734 7.51256C18.4058 7.18437 17.9607 7 17.4966 7C17.0325 7 16.5873 7.18437 16.2592 7.51256C15.931 7.84075 15.7466 8.28587 15.7466 8.75V17.5C15.7466 17.9641 15.931 18.4092 16.2592 18.7374C16.5873 19.0656 17.0325 19.25 17.4966 19.25H22.7466C23.2107 19.25 23.6558 19.0656 23.984 18.7374C24.3122 18.4092 24.4966 17.9641 24.4966 17.5C24.4966 17.0359 24.3122 16.5907 23.984 16.2626C23.6558 15.9344 23.2107 15.75 22.7466 15.75ZM17.4966 0C14.0354 0 10.652 1.02636 7.77411 2.94928C4.89625 4.87221 2.65323 7.60533 1.3287 10.803C0.0041645 14.0007 -0.342394 17.5194 0.332847 20.9141C1.00809 24.3087 2.6748 27.4269 5.12222 29.8744C7.56964 32.3218 10.6878 33.9885 14.0825 34.6637C17.4772 35.339 20.9958 34.9924 24.1935 33.6679C27.3913 32.3434 30.1244 30.1003 32.0473 27.2225C33.9702 24.3446 34.9966 20.9612 34.9966 17.5C34.9914 12.8603 33.146 8.4121 29.8653 5.13133C26.5845 1.85056 22.1363 0.00516001 17.4966 0ZM17.4966 31.5C14.7276 31.5 12.0209 30.6789 9.7186 29.1406C7.41632 27.6022 5.6219 25.4157 4.56228 22.8576C3.50265 20.2994 3.2254 17.4845 3.7656 14.7687C4.30579 12.053 5.63916 9.55844 7.59709 7.6005C9.55503 5.64257 12.0496 4.3092 14.7653 3.76901C17.4811 3.22881 20.296 3.50606 22.8542 4.56569C25.4123 5.62531 27.5988 7.41973 29.1372 9.72201C30.6755 12.0243 31.4966 14.7311 31.4966 17.5C31.4923 21.2117 30.016 24.7702 27.3914 27.3948C24.7668 30.0194 21.2083 31.4957 17.4966 31.5Z" fill="white"/>
</svg>
