<svg width="27" height="27" viewBox="0 0 27 27" fill="none" xmlns="http://www.w3.org/2000/svg">
<path fill-rule="evenodd" clip-rule="evenodd" d="M9.125 14.9583C9.89855 14.9583 10.6404 15.2656 11.1874 15.8126C11.7344 16.3596 12.0417 17.1015 12.0417 17.875V23.7083C12.0417 24.4819 11.7344 25.2237 11.1874 25.7707C10.6404 26.3177 9.89855 26.625 9.125 26.625H3.29167C2.51812 26.625 1.77625 26.3177 1.22927 25.7707C0.682291 25.2237 0.375 24.4819 0.375 23.7083V17.875C0.375 17.1015 0.682291 16.3596 1.22927 15.8126C1.77625 15.2656 2.51812 14.9583 3.29167 14.9583H9.125ZM23.7083 14.9583C24.4442 14.9581 25.1529 15.236 25.6925 15.7364C26.232 16.2367 26.5625 16.9225 26.6177 17.6563L26.625 17.875V23.7083C26.6252 24.4442 26.3473 25.1529 25.847 25.6925C25.3466 26.232 24.6609 26.5625 23.9271 26.6177L23.7083 26.625H17.875C17.1392 26.6252 16.4304 26.3473 15.8909 25.847C15.3513 25.3466 15.0208 24.6609 14.9656 23.9271L14.9583 23.7083V17.875C14.9581 17.1392 15.236 16.4304 15.7364 15.8909C16.2367 15.3513 16.9225 15.0208 17.6563 14.9656L17.875 14.9583H23.7083ZM9.125 17.875H3.29167V23.7083H9.125V17.875ZM23.7083 17.875H17.875V23.7083H23.7083V17.875ZM23.7083 0.375C24.4442 0.374767 25.1529 0.652676 25.6925 1.15302C26.232 1.65336 26.5625 2.33915 26.6177 3.07292L26.625 3.29167V9.125C26.6252 9.86084 26.3473 10.5696 25.847 11.1091C25.3466 11.6487 24.6609 11.9792 23.9271 12.0344L23.7083 12.0417H17.875C17.1392 12.0419 16.4304 11.764 15.8909 11.2637C15.3513 10.7633 15.0208 10.0775 14.9656 9.34375L14.9583 9.125V3.29167C14.9581 2.55583 15.236 1.84709 15.7364 1.30753C16.2367 0.767978 16.9225 0.43748 17.6563 0.382292L17.875 0.375H23.7083ZM9.125 0.375C9.86084 0.374767 10.5696 0.652676 11.1091 1.15302C11.6487 1.65336 11.9792 2.33915 12.0344 3.07292L12.0417 3.29167V9.125C12.0419 9.86084 11.764 10.5696 11.2637 11.1091C10.7633 11.6487 10.0775 11.9792 9.34375 12.0344L9.125 12.0417H3.29167C2.55583 12.0419 1.84709 11.764 1.30753 11.2637C0.767978 10.7633 0.43748 10.0775 0.382292 9.34375L0.375 9.125V3.29167C0.374767 2.55583 0.652676 1.84709 1.15302 1.30753C1.65336 0.767978 2.33915 0.43748 3.07292 0.382292L3.29167 0.375H9.125ZM23.7083 3.29167H17.875V9.125H23.7083V3.29167ZM9.125 3.29167H3.29167V9.125H9.125V3.29167Z" fill="white"/>
</svg>
