<svg width="25" height="25" viewBox="0 0 25 25" fill="none" xmlns="http://www.w3.org/2000/svg">
<path d="M12.5 12.5C10.7812 12.5 9.30989 11.888 8.08594 10.6641C6.86198 9.4401 6.25 7.96875 6.25 6.25C6.25 4.53125 6.86198 3.0599 8.08594 1.83594C9.30989 0.611979 10.7812 0 12.5 0C14.2187 0 15.6901 0.611979 16.9141 1.83594C18.138 3.0599 18.75 4.53125 18.75 6.25C18.75 7.96875 18.138 9.4401 16.9141 10.6641C15.6901 11.888 14.2187 12.5 12.5 12.5ZM0 25V20.625C0 19.7396 0.228125 18.926 0.684375 18.1844C1.14063 17.4427 1.74583 16.876 2.5 16.4844C4.11458 15.6771 5.75521 15.0719 7.42187 14.6687C9.08854 14.2656 10.7812 14.0635 12.5 14.0625C14.2187 14.0625 15.9115 14.2646 17.5781 14.6687C19.2448 15.0729 20.8854 15.6781 22.5 16.4844C23.2552 16.875 23.8609 17.4417 24.3172 18.1844C24.7734 18.9271 25.001 19.7406 25 20.625V25H0ZM3.125 21.875H21.875V20.625C21.875 20.3385 21.8036 20.0781 21.6609 19.8438C21.5182 19.6094 21.3292 19.4271 21.0937 19.2969C19.6875 18.5938 18.2682 18.0667 16.8359 17.7156C15.4036 17.3646 13.9583 17.1885 12.5 17.1875C11.0417 17.1875 9.59635 17.3635 8.16406 17.7156C6.73177 18.0677 5.3125 18.5948 3.90625 19.2969C3.67187 19.4271 3.48281 19.6094 3.33906 19.8438C3.19531 20.0781 3.12396 20.3385 3.125 20.625V21.875ZM12.5 9.375C13.3594 9.375 14.0953 9.06927 14.7078 8.45781C15.3203 7.84635 15.626 7.11042 15.625 6.25C15.625 5.39062 15.3193 4.65521 14.7078 4.04375C14.0964 3.43229 13.3604 3.12604 12.5 3.125C11.6406 3.125 10.9052 3.43125 10.2937 4.04375C9.68229 4.65625 9.37604 5.39167 9.375 6.25C9.375 7.10938 9.68125 7.84531 10.2937 8.45781C10.9062 9.07031 11.6417 9.37604 12.5 9.375Z" fill="white"/>
</svg>
