<svg width="25" height="25" viewBox="0 0 25 25" fill="none" xmlns="http://www.w3.org/2000/svg">
<path fill-rule="evenodd" clip-rule="evenodd" d="M12.4938 4.54637e-06C14.3619 -0.00158923 16.2067 0.415872 17.8923 1.22167C19.5778 2.02746 21.0613 3.20109 22.2336 4.65617C23.4059 6.11126 24.2371 7.81078 24.6661 9.62966C25.0951 11.4485 25.1109 13.3405 24.7124 15.1663C24.3139 16.9921 23.5113 18.7053 22.3635 20.1798C21.2157 21.6543 19.7521 22.8526 18.0802 23.6865C16.4083 24.5204 14.5708 24.9687 12.7029 24.9984C10.835 25.0281 8.98417 24.6384 7.28667 23.8581L1.06049 24.9856C0.90386 25.0139 0.742516 25.0002 0.592906 24.9459C0.443295 24.8915 0.310767 24.7984 0.208831 24.6761C0.106894 24.5538 0.0391922 24.4067 0.0126267 24.2497C-0.0139388 24.0927 0.0015815 23.9315 0.0576057 23.7824L1.84192 19.0274C0.682452 17.1331 0.0484986 14.964 0.00529557 12.7432C-0.0379075 10.5225 0.511201 8.33031 1.59611 6.39234C2.68102 4.45436 4.26255 2.84058 6.17793 1.71705C8.09332 0.593527 10.2734 0.00084735 12.4938 4.54637e-06ZM8.44621 9.46146C8.80435 9.46146 9.14783 9.31914 9.40108 9.0658C9.65432 8.81246 9.79659 8.46887 9.79659 8.1106C9.79659 7.75232 9.65432 7.40873 9.40108 7.15539C9.14783 6.90205 8.80435 6.75973 8.44621 6.75973C8.08806 6.75973 7.74459 6.90205 7.49134 7.15539C7.23809 7.40873 7.09582 7.75232 7.09582 8.1106C7.09582 8.46887 7.23809 8.81246 7.49134 9.0658C7.74459 9.31914 8.08806 9.46146 8.44621 9.46146ZM17.8431 8.1106C17.8431 8.46887 17.7008 8.81246 17.4476 9.0658C17.1943 9.31914 16.8509 9.46146 16.4927 9.46146C16.1346 9.46146 15.7911 9.31914 15.5378 9.0658C15.2846 8.81246 15.1423 8.46887 15.1423 8.1106C15.1423 7.75232 15.2846 7.40873 15.5378 7.15539C15.7911 6.90205 16.1346 6.75973 16.4927 6.75973C16.8509 6.75973 17.1943 6.90205 17.4476 7.15539C17.7008 7.40873 17.8431 7.75232 17.8431 8.1106ZM18.7992 13.4006C18.7992 15.0725 18.1352 16.676 16.9534 17.8582C15.7716 19.0404 14.1687 19.7046 12.4974 19.7046C10.826 19.7046 9.22314 19.0404 8.04132 17.8582C6.8595 16.676 6.19556 15.0725 6.19556 13.4006H18.7992Z" fill="white"/>
</svg>
