<svg width="20" height="21" viewBox="0 0 20 21" fill="none" xmlns="http://www.w3.org/2000/svg">
<path d="M10 0C8.05679 0.00369205 6.15658 0.572398 4.53084 1.63685C2.9051 2.7013 1.62399 4.21555 0.843549 5.99516C0.0631123 7.77477 -0.182966 9.74292 0.135289 11.6599C0.453544 13.5769 1.3224 15.3599 2.63601 16.7919C3.57422 17.8089 4.7129 18.6205 5.9803 19.1756C7.24771 19.7308 8.61635 20.0174 10 20.0174C11.3836 20.0174 12.7523 19.7308 14.0197 19.1756C15.2871 18.6205 16.4258 17.8089 17.364 16.7919C18.6776 15.3599 19.5465 13.5769 19.8647 11.6599C20.183 9.74292 19.9369 7.77477 19.1565 5.99516C18.376 4.21555 17.0949 2.7013 15.4692 1.63685C13.8434 0.572398 11.9432 0.00369205 10 0ZM10 18.0343C7.92452 18.0311 5.93119 17.223 4.43944 15.78C4.89234 14.6774 5.6628 13.7344 6.6529 13.0707C7.643 12.407 8.80805 12.0527 10 12.0527C11.192 12.0527 12.357 12.407 13.3471 13.0707C14.3372 13.7344 15.1077 14.6774 15.5606 15.78C14.0688 17.223 12.0755 18.0311 10 18.0343ZM7.99619 8.01523C7.99619 7.61891 8.11372 7.23149 8.3339 6.90197C8.55408 6.57245 8.86703 6.31561 9.23318 6.16395C9.59933 6.01229 10.0022 5.9726 10.3909 6.04992C10.7796 6.12724 11.1367 6.31808 11.4169 6.59832C11.6971 6.87856 11.888 7.2356 11.9653 7.6243C12.0426 8.013 12.0029 8.4159 11.8513 8.78205C11.6996 9.1482 11.4428 9.46115 11.1133 9.68133C10.7837 9.90151 10.3963 10.019 10 10.019C9.46856 10.019 8.95888 9.80792 8.5831 9.43213C8.20731 9.05634 7.99619 8.54667 7.99619 8.01523ZM16.9232 14.0266C16.028 12.4955 14.6502 11.3045 13.0057 10.6402C13.5158 10.0618 13.8482 9.34842 13.963 8.58575C14.0778 7.82308 13.97 7.04349 13.6527 6.34054C13.3354 5.63759 12.8219 5.04113 12.174 4.62275C11.5261 4.20436 10.7713 3.98181 10 3.98181C9.22875 3.98181 8.47387 4.20436 7.82596 4.62275C7.17805 5.04113 6.66464 5.63759 6.34731 6.34054C6.02999 7.04349 5.92224 7.82308 6.037 8.58575C6.15176 9.34842 6.48415 10.0618 6.99429 10.6402C5.34977 11.3045 3.97202 12.4955 3.07685 14.0266C2.36344 12.8114 1.9865 11.4282 1.98478 10.019C1.98478 7.89326 2.82924 5.85456 4.33238 4.35141C5.83553 2.84827 7.87423 2.00381 10 2.00381C12.1258 2.00381 14.1645 2.84827 15.6676 4.35141C17.1708 5.85456 18.0152 7.89326 18.0152 10.019C18.0135 11.4282 17.6366 12.8114 16.9232 14.0266Z" fill="#FFE03E"/>
</svg>
