<svg width="145" height="126" viewBox="0 0 145 126" fill="none" xmlns="http://www.w3.org/2000/svg">
<path d="M25.55 123H13.825V74.525H11.725V123H0V0.499992H19.775C21.4083 0.499992 22.75 1.08332 23.8 2.24999C24.9667 3.29999 25.55 4.64166 25.55 6.27499V54.75C25.55 56.3833 24.9667 57.7833 23.8 58.95C22.75 60.1167 21.4083 60.7 19.775 60.7H11.725V62.8H19.775C21.4083 62.8 22.75 63.3833 23.8 64.55C24.9667 65.7167 25.55 67.1167 25.55 68.75V123ZM11.725 48.975H13.825V12.225H11.725V48.975ZM47.4605 0.499992C49.0939 0.499992 50.4355 1.08332 51.4855 2.24999C52.6522 3.41666 53.2355 4.81667 53.2355 6.45V55.975V67.7V123H41.5105V67.7H39.4105V123H27.6855V67.7V55.975V6.45C27.6855 4.81667 28.2105 3.41666 29.2605 2.24999C30.4272 1.08332 31.8272 0.499992 33.4605 0.499992H47.4605ZM41.5105 55.975V12.225H39.4105V55.975H41.5105ZM80.9211 123H69.1961V74.525H67.0961V123H55.3711V0.499992H75.1461C76.7794 0.499992 78.1211 1.08332 79.1711 2.24999C80.3378 3.29999 80.9211 4.64166 80.9211 6.27499V54.75C80.9211 56.3833 80.3378 57.7833 79.1711 58.95C78.1211 60.1167 76.7794 60.7 75.1461 60.7H67.0961V62.8H75.1461C76.7794 62.8 78.1211 63.3833 79.1711 64.55C80.3378 65.7167 80.9211 67.1167 80.9211 68.75V123ZM67.0961 48.975H69.1961V12.225H67.0961V48.975ZM88.8316 123C87.1983 123 85.7983 122.475 84.6316 121.425C83.5816 120.258 83.0566 118.858 83.0566 117.225V6.27499C83.0566 4.64166 83.5816 3.29999 84.6316 2.24999C85.7983 1.08332 87.1983 0.499992 88.8316 0.499992H102.832C104.465 0.499992 105.807 1.08332 106.857 2.24999C108.023 3.29999 108.607 4.64166 108.607 6.27499V117.225C108.607 118.858 108.023 120.258 106.857 121.425C105.807 122.475 104.465 123 102.832 123H88.8316ZM94.7816 111.275H96.8816V12.225H94.7816V111.275ZM136.292 123H116.692C115.059 123 113.659 122.417 112.492 121.25C111.326 120.083 110.742 118.683 110.742 117.05V6.27499C110.742 4.64166 111.326 3.29999 112.492 2.24999C113.659 1.08332 115.059 0.499992 116.692 0.499992H130.517C132.151 0.499992 133.492 1.08332 134.542 2.24999C135.709 3.29999 136.292 4.64166 136.292 6.27499V60.7H124.567V12.225H122.467V111.275H124.567V62.8H143.292V74.525H136.292V123Z" fill="#FF6209"/>
<mask id="mask0_1180_495" style="mask-type:alpha" maskUnits="userSpaceOnUse" x="0" y="0" width="144" height="123">
<path d="M25.55 123H13.825V74.525H11.725V123H0V0.499992H19.775C21.4083 0.499992 22.75 1.08332 23.8 2.24999C24.9667 3.29999 25.55 4.64166 25.55 6.27499V54.75C25.55 56.3833 24.9667 57.7833 23.8 58.95C22.75 60.1167 21.4083 60.7 19.775 60.7H11.725V62.8H19.775C21.4083 62.8 22.75 63.3833 23.8 64.55C24.9667 65.7167 25.55 67.1167 25.55 68.75V123ZM11.725 48.975H13.825V12.225H11.725V48.975ZM47.4605 0.499992C49.0939 0.499992 50.4355 1.08332 51.4855 2.24999C52.6522 3.41666 53.2355 4.81667 53.2355 6.45V55.975V67.7V123H41.5105V67.7H39.4105V123H27.6855V67.7V55.975V6.45C27.6855 4.81667 28.2105 3.41666 29.2605 2.24999C30.4272 1.08332 31.8272 0.499992 33.4605 0.499992H47.4605ZM41.5105 55.975V12.225H39.4105V55.975H41.5105ZM80.9211 123H69.1961V74.525H67.0961V123H55.3711V0.499992H75.1461C76.7794 0.499992 78.1211 1.08332 79.1711 2.24999C80.3378 3.29999 80.9211 4.64166 80.9211 6.27499V54.75C80.9211 56.3833 80.3378 57.7833 79.1711 58.95C78.1211 60.1167 76.7794 60.7 75.1461 60.7H67.0961V62.8H75.1461C76.7794 62.8 78.1211 63.3833 79.1711 64.55C80.3378 65.7167 80.9211 67.1167 80.9211 68.75V123ZM67.0961 48.975H69.1961V12.225H67.0961V48.975ZM88.8316 123C87.1983 123 85.7983 122.475 84.6316 121.425C83.5816 120.258 83.0566 118.858 83.0566 117.225V6.27499C83.0566 4.64166 83.5816 3.29999 84.6316 2.24999C85.7983 1.08332 87.1983 0.499992 88.8316 0.499992H102.832C104.465 0.499992 105.807 1.08332 106.857 2.24999C108.023 3.29999 108.607 4.64166 108.607 6.27499V117.225C108.607 118.858 108.023 120.258 106.857 121.425C105.807 122.475 104.465 123 102.832 123H88.8316ZM94.7816 111.275H96.8816V12.225H94.7816V111.275ZM136.292 123H116.692C115.059 123 113.659 122.417 112.492 121.25C111.326 120.083 110.742 118.683 110.742 117.05V6.27499C110.742 4.64166 111.326 3.29999 112.492 2.24999C113.659 1.08332 115.059 0.499992 116.692 0.499992H130.517C132.151 0.499992 133.492 1.08332 134.542 2.24999C135.709 3.29999 136.292 4.64166 136.292 6.27499V60.7H124.567V12.225H122.467V111.275H124.567V62.8H143.292V74.525H136.292V123Z" fill="#B90909"/>
</mask>
<g mask="url(#mask0_1180_495)">
<rect x="13.9043" y="-76" width="145" height="187" rx="54" fill="#FFE03E"/>
</g>
</svg>
